<?xml version="1.0" encoding="UTF-8"?>
<!-- Created with Inkscape (http://www.inkscape.org/) -->
<svg id="svg8" width="183.39mm" height="111.63mm" version="1.1" viewBox="0 0 183.39427 111.63078" xmlns="http://www.w3.org/2000/svg" xmlns:cc="http://creativecommons.org/ns#" xmlns:dc="http://purl.org/dc/elements/1.1/" xmlns:rdf="http://www.w3.org/1999/02/22-rdf-syntax-ns#">
 <defs id="defs2">
  <marker id="marker5633" overflow="visible" orient="auto">
   <path id="path5631" transform="matrix(-.4 0 0 -.4 -4 0)" d="m0 0 5-5-17.5 5 17.5 5z" fill-rule="evenodd" stroke="#000" stroke-width="1pt"/>
  </marker>
  <marker id="marker5587" overflow="visible" orient="auto">
   <path id="path5585" transform="matrix(-.4 0 0 -.4 -4 0)" d="m0 0 5-5-17.5 5 17.5 5z" fill-rule="evenodd" stroke="#000" stroke-width="1pt"/>
  </marker>
  <marker id="marker5487" overflow="visible" orient="auto">
   <path id="path5485" transform="matrix(-.4 0 0 -.4 -4 0)" d="m0 0 5-5-17.5 5 17.5 5z" fill-rule="evenodd" stroke="#000" stroke-width="1pt"/>
  </marker>
  <marker id="marker5327" overflow="visible" orient="auto">
   <path id="path5325" transform="matrix(-.4 0 0 -.4 -4 0)" d="m0 0 5-5-17.5 5 17.5 5z" fill-rule="evenodd" stroke="#000" stroke-width="1pt"/>
  </marker>
  <marker id="marker4929" overflow="visible" orient="auto">
   <path id="path4927" transform="matrix(-.4 0 0 -.4 -4 0)" d="m0 0 5-5-17.5 5 17.5 5z" fill-rule="evenodd" stroke="#000" stroke-width="1pt"/>
  </marker>
  <marker id="Arrow1Mend" overflow="visible" orient="auto">
   <path id="path4508" transform="matrix(-.4 0 0 -.4 -4 0)" d="m0 0 5-5-17.5 5 17.5 5z" fill-rule="evenodd" stroke="#000" stroke-width="1pt"/>
  </marker>
 </defs>
 <metadata id="metadata5">
  <rdf:RDF>
   <cc:Work rdf:about="">
    <dc:format>image/svg+xml</dc:format>
    <dc:type rdf:resource="http://purl.org/dc/dcmitype/StillImage"/>
    <dc:title/>
   </cc:Work>
  </rdf:RDF>
 </metadata>
 <g id="layer1" transform="translate(-15.211 -21.477)">
  <g id="g5313" transform="translate(0 -5.1027)">
   <rect id="rect4485" x="19.511" y="80.779" width="174.79" height="21.382" fill="none" stroke="#000" stroke-width=".6"/>
   <text id="text4489" x="107.00426" y="94.10006" fill="#000000" font-family="sans-serif" font-size="7.0556px" letter-spacing="0px" stroke-width=".26458px" text-align="center" text-anchor="middle" word-spacing="0px" style="line-height:6.61458302px" xml:space="preserve"><tspan id="tspan4487" x="107.00426" y="94.10006" stroke-width=".26458px">The Shell</tspan></text>
  </g>
  <g id="g5308">
   <rect id="rect4491" x="19.511" y="54.321" width="174.79" height="21.382" fill="none" stroke="#000" stroke-width=".6"/>
   <text id="text4495" x="107.00426" y="67.641739" fill="#000000" font-family="sans-serif" font-size="7.0556px" letter-spacing="0px" stroke-width=".26458px" text-align="center" text-anchor="middle" word-spacing="0px" style="line-height:6.61458302px" xml:space="preserve"><tspan id="tspan4493" x="107.00426" y="67.641739" stroke-width=".26458px">The Skin</tspan></text>
  </g>
  <g id="g5533" transform="translate(-.24309 8.4667)">
   <path id="path4497" d="m96.568 26.961v17.715" fill="none" marker-end="url(#Arrow1Mend)" stroke="#000" stroke-width=".6"/>
   <path id="path4925" d="m117.73 45.858v-17.715" fill="none" marker-end="url(#marker4929)" stroke="#000" stroke-width=".6"/>
   <text id="text5205" x="106.93041" y="22.246925" fill="#000000" font-family="sans-serif" font-size="7.0556px" letter-spacing="0px" stroke-width=".26458px" text-align="center" text-anchor="middle" word-spacing="0px" style="line-height:6.61458302px" xml:space="preserve"><tspan id="tspan5203" x="106.93041" y="22.246925" stroke-width=".26458px">User Input/Output</tspan></text>
  </g>
  <g id="g5539" transform="translate(-64.027 23.789)" fill="none" stroke="#000" stroke-width=".6">
   <path id="path5535" d="m96.568 72.999v9.2483" marker-end="url(#marker5327)"/>
   <path id="path5537" d="m117.73 83.429v-9.2483" marker-end="url(#marker5487)"/>
  </g>
  <g id="g5569">
   <rect id="rect5547" x="19.511" y="107.43" width="47.227" height="21.382" fill="none" stroke="#000" stroke-width=".6"/>
   <text id="text5551" x="42.952068" y="120.74738" fill="#000000" font-family="sans-serif" font-size="7.0556px" letter-spacing="0px" stroke-width=".26458px" text-align="center" text-anchor="middle" word-spacing="0px" style="line-height:6.61458302px" xml:space="preserve"><tspan id="tspan5549" x="42.952068" y="120.74738" stroke-width=".26458px">Plugins</tspan></text>
  </g>
  <g id="g5744">
   <rect id="rect5571" x="150.62" y="84.094" width="32.75" height="12.855" fill="none" stroke="#000" stroke-width=".6"/>
   <text id="text5575" x="167.1512" y="92.625687" fill="#000000" font-family="sans-serif" font-size="7.0556px" letter-spacing="0px" stroke-width=".26458px" text-align="center" text-anchor="middle" word-spacing="0px" style="line-height:6.61458302px" xml:space="preserve"><tspan id="tspan5573" x="167.1512" y="92.625687" font-size="5.6444px" stroke-width=".26458px">The Core</tspan></text>
  </g>
  <g id="g5739" transform="translate(1.1017)" fill="none" stroke="#000" stroke-width=".6">
   <path id="path5577" d="m159.54 96.788v9.2483" marker-end="url(#marker5633)"/>
   <path id="path5579" d="m172.24 107.22v-9.2483" marker-end="url(#marker5587)"/>
  </g>
  <text id="text5748" x="166.66026" y="116.51637" fill="#000000" font-family="sans-serif" font-size="7.0556px" letter-spacing="0px" stroke-width=".26458px" text-align="center" text-anchor="middle" word-spacing="0px" style="line-height:6.61458302px" xml:space="preserve"><tspan id="tspan5746" x="166.66026" y="116.51637" stroke-width=".26458px">Disk/Network</tspan></text>
 </g>
</svg>
